<svg version="1" xmlns="http://www.w3.org/2000/svg" width="666.667" height="666.667" viewBox="0 0 500.000000 500.000000"><path d="M0 250v250h500V0H0v250zm460.4-47.9c7.7 2.4 14.8 7.6 18.6 13.6 2.9 4.6 5.7 14.4 4.5 16.3-.3.6-4.8 1-10.1 1-8.1 0-9.5-.2-10-1.8-2.8-8.6-6.3-11.8-15-13.4-12.3-2.2-23.4 2.9-23.4 10.8 0 7.7 1.8 8.8 24.5 14.3 24.2 5.9 30.4 9.1 34.7 17.6 2.5 4.8 3.5 15.4 1.9 21.1-2.6 9.7-12 18.7-22.8 21.8-17.8 5.1-39.3 1.6-50.6-8.3-4.3-3.8-8.3-11.8-9.3-18.4l-.6-4.7h21l.7 3.7c.8 4.7 5.9 9.8 11 11.2 5.1 1.4 15.9 1.4 20.9 0 6.1-1.7 9.6-5.8 9.6-11.1 0-3.3-.6-5-2.2-6.5-3.5-3.1-3.7-3.1-22.5-7.8-25.1-6.3-31.1-9.8-34.9-20.2-2-5.7-1.7-15.4.7-21.7 6.2-16.8 30.4-24.7 53.3-17.5zM75 241.8c0 45.3-.3 47.3-7.1 54.7-6.9 7.5-18.3 10.6-31.5 8.5-8.9-1.4-14.1-4.4-18.1-10.3-3.6-5.3-6.3-15.8-6.3-24.1V265H31.7l.8 7.2c1.2 12.4 3.6 15.8 11.2 15.8 5 0 8-2.2 9.3-6.8.6-2.2 1-18.6 1-41.5V202h21v39.8zm88.9-.8c7.6 21.2 15.6 43.8 17.9 50.2L186 303h-23.5l-3-9.8-3.1-9.7-18.6-.3-18.7-.2-3.2 10-3.3 10H90.1l4.3-12.3c2.4-6.7 9.9-27.5 16.6-46.2 6.7-18.7 12.9-35.9 13.7-38.3l1.5-4.3 12 .3 12.1.3 13.6 38.5zm65.9-34.8c.6 2.4 4.5 19.1 8.7 37.3 4.2 18.1 7.8 33.7 8.2 34.5.4 1.3 3.3-10.4 15.9-64.8l2.6-11.3 15.2.3 15.1.3.3 50.2.2 50.3h-20l-.1-40.8-.1-40.7-9.2 40.5-9.2 40.5-10.5.3-10.6.3-5.1-22.8c-2.8-12.5-6.8-30.4-8.9-39.8l-3.8-17-.3 39.8-.2 39.7h-20V202h30.8l1 4.2zm159.7 5.3v9l-26.7.3-26.8.2v20h49v18l-24.2.2-24.3.3v25l27.8.3 27.7.2v18h-77v-49.8c0-27.4.3-50.2.7-50.5.4-.4 17.1-.6 37.2-.5l36.6.3v9z"/><path d="M131.7 245.3c-3.1 9.5-5.7 17.8-5.7 18.5 0 .9 3.3 1.2 12.1 1.2 11.1 0 12.1-.2 11.6-1.8-2.2-8.1-11.2-35.2-11.7-35.2-.3 0-3.1 7.8-6.3 17.3z"/></svg>